<?xml version="1.0" standalone="no"?>
<!DOCTYPE svg PUBLIC "-//W3C//DTD SVG 20010904//EN"
 "http://www.w3.org/TR/2001/REC-SVG-20010904/DTD/svg10.dtd">
<svg version="1.0" xmlns="http://www.w3.org/2000/svg"
 width="357.000000pt" height="312.000000pt" viewBox="0 0 357.000000 312.000000"
 preserveAspectRatio="xMidYMid meet">

<g transform="translate(0.000000,312.000000) scale(0.100000,-0.100000)"
fill="#000000" stroke="none">
<path d="M1645 2881 c-81 -34 -95 -186 -22 -247 27 -23 38 -26 85 -22 74 6
104 37 110 111 8 105 -34 168 -112 166 -22 0 -50 -4 -61 -8z m101 -44 c23 -20
28 -34 32 -85 4 -55 2 -63 -21 -86 -52 -52 -119 -26 -135 51 -13 62 -6 99 26
123 33 26 65 25 98 -3z"/>
<path d="M2016 2838 c-28 -39 -20 -72 29 -121 50 -51 49 -50 35 -78 -14 -25
-60 -25 -93 1 -31 25 -37 25 -37 1 0 -26 46 -53 93 -55 31 -1 44 5 63 27 34
40 30 61 -22 117 -32 34 -45 56 -42 72 4 29 40 36 73 14 31 -20 35 -20 35 2 0
42 -108 58 -134 20z"/>
<path d="M1258 2754 c-27 -13 -48 -26 -48 -29 0 -18 117 -235 127 -235 24 0
23 20 -2 69 -25 50 -25 50 -5 61 24 13 50 1 96 -42 20 -18 37 -26 47 -22 9 3
17 10 17 14 0 11 -86 80 -99 80 -14 0 -14 6 0 32 13 24 -5 74 -32 88 -27 15
-49 11 -101 -16z m90 -26 c19 -19 14 -45 -14 -67 -15 -12 -30 -21 -33 -21 -4
0 -15 17 -25 37 -17 35 -17 38 0 50 22 16 56 17 72 1z"/>
<path d="M2289 2634 c-58 -93 -70 -118 -58 -125 10 -6 18 -3 29 11 50 68 43
64 78 46 43 -22 76 -20 106 7 56 49 40 109 -42 155 l-40 22 -73 -116z m128 42
c27 -24 27 -26 13 -53 -18 -32 -59 -42 -89 -21 -19 14 -19 15 7 56 15 23 30
42 34 42 4 0 20 -11 35 -24z"/>
<path d="M972 2547 c-23 -23 -42 -47 -42 -53 0 -5 42 -51 93 -102 l93 -92 52
53 c28 29 52 56 52 60 0 17 -27 4 -62 -30 l-38 -37 -30 29 c-37 36 -37 44 0
80 20 19 27 32 20 39 -7 7 -22 -1 -45 -24 l-35 -34 -30 29 -30 29 40 41 c38
38 42 55 15 55 -6 0 -30 -19 -53 -43z"/>
<path d="M2563 2423 c-75 -28 -123 -51 -123 -59 0 -17 33 -18 62 -3 18 10 25
6 58 -32 l38 -44 -20 -33 c-18 -30 -19 -35 -6 -49 13 -13 23 0 87 109 72 122
79 150 40 155 -8 1 -69 -19 -136 -44z m85 -57 l-33 -57 -27 33 c-15 18 -28 35
-28 38 0 5 113 49 118 45 1 -1 -12 -28 -30 -59z"/>
<path d="M750 2246 c-7 -9 -10 -21 -7 -28 7 -19 178 -208 188 -208 21 0 19 24
-6 50 l-27 28 26 50 c25 50 27 51 68 49 32 -2 43 2 46 14 2 13 -19 19 -125 34
-70 10 -133 19 -139 22 -6 2 -17 -3 -24 -11z m159 -51 c6 -7 -27 -75 -36 -74
-5 0 -26 21 -48 46 l-40 46 59 -7 c33 -4 62 -9 65 -11z"/>
<path d="M2743 2150 c-45 -20 -83 -69 -83 -108 0 -49 54 -118 83 -106 14 5 12
11 -13 34 -71 66 -9 160 105 160 42 0 75 -38 75 -87 0 -23 4 -33 13 -31 17 6
21 55 6 89 -28 68 -102 88 -186 49z"/>
<path d="M2858 1815 c-122 -16 -130 -19 -124 -47 3 -13 8 -44 11 -70 4 -34 11
-48 22 -48 12 0 14 10 8 59 l-7 59 47 4 c49 3 50 2 57 -62 2 -14 9 -25 18 -25
11 0 14 11 11 46 -2 45 -1 46 30 53 17 3 35 6 39 6 4 0 11 -25 15 -55 5 -40
11 -55 22 -55 13 0 15 10 9 67 -4 36 -9 70 -12 75 -6 10 -21 9 -146 -7z"/>
<path d="M2836 1489 c-10 -50 -7 -69 9 -69 8 0 15 8 15 19 0 10 3 33 6 50 5
24 3 31 -8 31 -9 0 -18 -13 -22 -31z"/>
<path d="M2705 1288 c-2 -7 -13 -37 -24 -67 -11 -30 -18 -58 -15 -63 12 -18
24 -6 41 42 19 54 23 56 72 39 35 -12 35 -16 15 -86 -5 -17 -2 -23 9 -23 10 0
21 15 28 40 14 44 13 44 58 29 35 -12 38 -24 16 -76 -10 -25 -12 -40 -5 -47
14 -14 19 -6 46 69 l24 66 -28 10 c-32 13 -224 79 -229 79 -2 0 -6 -6 -8 -12z"/>
<path d="M951 1032 c-17 -27 -31 -56 -31 -65 0 -13 -5 -15 -25 -7 -44 17 -95
-15 -95 -60 0 -27 53 -120 68 -120 7 0 194 124 221 146 2 2 -2 10 -9 19 -11
13 -18 11 -56 -16 -25 -18 -49 -29 -58 -26 -25 10 -19 55 15 104 28 40 30 47
17 60 -13 13 -19 8 -47 -35z m-30 -128 l24 -26 -30 -24 c-36 -29 -51 -30 -65
-5 -21 40 -6 81 30 81 9 0 27 -12 41 -26z"/>
<path d="M2591 1026 c-10 -12 3 -26 76 -82 87 -66 88 -67 48 -60 -173 26 -205
29 -220 16 -8 -7 -15 -16 -15 -20 0 -12 201 -160 217 -160 31 0 8 31 -63 85
-42 31 -74 58 -72 60 2 2 54 -4 116 -13 99 -15 114 -15 122 -2 5 8 10 20 10
26 0 8 -87 78 -196 156 -7 5 -16 2 -23 -6z"/>
<path d="M1174 818 c-5 -7 9 -26 35 -48 l43 -37 -32 -37 -32 -36 -36 30 c-26
21 -39 27 -47 19 -7 -7 2 -20 28 -43 l39 -32 -27 -32 -27 -32 -43 35 c-34 28
-45 33 -53 22 -9 -10 1 -23 43 -55 29 -23 58 -42 63 -42 13 0 162 189 162 205
0 20 -108 97 -116 83z"/>
<path d="M2316 740 c-30 -9 -96 -67 -96 -84 0 -15 61 -106 71 -106 17 0 79 45
79 58 0 16 -21 15 -47 -3 -20 -14 -23 -13 -42 14 -28 39 -27 48 12 71 39 24
59 25 97 5 51 -26 76 -106 50 -156 -13 -23 -61 -49 -90 -49 -13 0 -20 -5 -17
-12 2 -8 20 -12 42 -12 32 1 46 9 77 42 32 35 38 48 38 85 0 94 -93 172 -174
147z"/>
<path d="M1406 655 c-3 -9 12 -21 49 -36 l54 -22 -16 -41 c-9 -23 -17 -42 -18
-44 -1 -1 -21 5 -45 13 -64 23 -78 2 -17 -25 26 -12 47 -23 47 -26 0 -2 -6
-20 -14 -39 l-14 -34 -50 19 c-46 18 -62 17 -62 0 0 -4 21 -17 48 -28 95 -40
84 -47 137 93 27 69 46 127 43 130 -2 2 -34 16 -70 29 -54 20 -67 23 -72 11z"/>
<path d="M2046 612 c-6 -10 62 -243 75 -257 6 -5 13 -5 20 2 8 8 1 45 -26 137
-35 115 -52 145 -69 118z"/>
<path d="M1690 461 c0 -66 -3 -126 -6 -135 -4 -12 0 -16 15 -16 19 0 21 6 21
54 0 29 3 74 6 100 l7 47 47 -93 c48 -93 82 -130 101 -111 5 5 10 67 12 138 2
115 0 130 -15 133 -15 3 -18 -9 -20 -110 l-3 -113 -58 113 c-50 97 -60 112
-82 112 l-25 0 0 -119z"/>
</g>
</svg>
