<?xml version="1.0" standalone="no"?>
<!DOCTYPE svg PUBLIC "-//W3C//DTD SVG 20010904//EN"
 "http://www.w3.org/TR/2001/REC-SVG-20010904/DTD/svg10.dtd">
<svg version="1.0" xmlns="http://www.w3.org/2000/svg"
 width="382.000000pt" height="362.000000pt" viewBox="0 0 382.000000 362.000000"
 preserveAspectRatio="xMidYMid meet">

<g transform="translate(0.000000,362.000000) scale(0.100000,-0.100000)"
fill="#000000" stroke="none">
<path d="M1702 3173 c3 -148 3 -148 27 -151 24 -4 24 -3 17 62 l-7 66 29 0
c34 0 52 -19 80 -82 15 -35 26 -48 41 -48 28 0 26 15 -14 88 -33 63 -33 64
-14 83 26 26 25 83 -1 109 -16 16 -33 20 -90 20 l-71 0 3 -147z m122 101 c36
-35 7 -84 -50 -84 l-34 0 0 50 0 50 34 0 c19 0 42 -7 50 -16z"/>
<path d="M1368 3242 c-38 -15 -68 -32 -68 -40 0 -16 89 -254 100 -265 4 -4 37
3 74 17 86 33 89 35 76 51 -9 10 -20 9 -60 -6 -28 -10 -54 -19 -58 -19 -7 0
-45 91 -40 95 2 1 24 9 50 19 33 12 45 22 41 32 -7 18 -12 18 -56 -1 -49 -20
-51 -20 -65 18 -14 40 -15 57 -3 57 5 0 30 9 55 20 33 14 44 23 40 35 -7 18
-4 19 -86 -13z"/>
<path d="M2176 3260 c-54 -17 -87 -61 -106 -144 -18 -81 27 -147 110 -161 62
-10 109 17 143 84 39 77 38 139 -3 180 -17 17 -48 35 -68 41 -42 11 -37 11
-76 0z m91 -50 c39 -23 50 -58 34 -108 -26 -87 -68 -122 -126 -108 -64 16 -82
82 -46 162 33 72 79 90 138 54z"/>
<path d="M2550 3030 c-26 -26 -25 -69 1 -130 25 -59 15 -90 -30 -90 -28 0 -72
38 -83 71 -6 17 -28 2 -28 -18 0 -8 17 -33 39 -54 48 -48 97 -53 136 -14 31
30 32 72 5 125 -24 47 -25 64 -4 84 23 23 33 20 71 -21 27 -28 37 -33 43 -23
19 31 -44 90 -96 90 -21 0 -42 -8 -54 -20z"/>
<path d="M982 3017 c-16 -19 87 -309 108 -304 15 3 17 20 6 72 -6 27 -2 33 39
64 l45 33 36 -22 c33 -19 39 -20 52 -6 9 9 14 17 11 20 -17 15 -264 156 -274
156 -7 0 -17 -6 -23 -13z m135 -94 l33 -20 -40 -32 c-28 -22 -42 -28 -45 -19
-2 7 -13 38 -25 68 -11 30 -20 56 -20 58 0 2 15 -5 33 -16 17 -11 47 -29 64
-39z"/>
<path d="M2803 2747 c-39 -29 -92 -66 -117 -84 -31 -22 -44 -37 -40 -48 9 -22
24 -18 67 15 l39 29 37 -40 c31 -32 45 -39 75 -39 47 0 96 44 96 87 0 27 -63
134 -78 132 -4 0 -39 -24 -79 -52z m117 -69 c0 -26 -36 -58 -64 -58 -22 0 -66
40 -66 60 0 4 21 21 47 38 l47 31 18 -27 c10 -15 18 -35 18 -44z"/>
<path d="M2804 2364 c3 -9 6 -18 6 -20 0 -2 20 -4 43 -4 l44 0 18 -59 18 -59
-33 -29 c-26 -23 -31 -33 -23 -47 10 -19 31 -5 185 122 65 53 76 67 68 81 -12
23 -69 31 -217 31 -101 0 -114 -2 -109 -16z m276 -28 c0 -5 -106 -86 -112 -86
-4 0 -13 20 -21 45 l-16 45 75 0 c41 0 74 -2 74 -4z"/>
<path d="M2973 2005 c-40 -17 -73 -69 -73 -113 0 -45 26 -92 51 -92 18 0 19 2
4 30 -37 71 -4 133 78 145 57 9 116 -17 136 -59 11 -24 11 -34 -2 -67 -15 -37
-14 -39 3 -39 44 0 56 107 18 155 -41 52 -143 71 -215 40z"/>
<path d="M2894 1638 c-10 -16 -34 -111 -34 -135 0 -14 6 -23 15 -23 9 0 18 20
27 61 11 56 14 60 36 54 14 -3 37 -9 53 -12 21 -4 28 -10 25 -22 -3 -9 -8 -33
-12 -53 -5 -31 -3 -38 9 -38 15 0 37 53 37 88 0 8 7 11 18 9 9 -3 30 -8 45
-11 28 -7 28 -8 21 -49 -11 -62 -10 -80 3 -84 14 -5 34 60 36 120 l2 41 -75
18 c-182 43 -200 46 -206 36z"/>
<path d="M2872 1264 c-21 -43 -22 -64 -2 -64 9 0 50 84 50 101 0 25 -29 3 -48
-37z"/>
<path d="M2622 1066 c-38 -48 -48 -66 -39 -75 9 -9 22 0 53 36 l41 47 37 -27
c20 -16 36 -33 36 -40 -1 -7 -14 -28 -30 -47 -45 -51 -21 -64 29 -16 l39 38
31 -21 c17 -12 31 -27 31 -32 0 -6 -16 -30 -35 -53 -29 -35 -33 -45 -22 -55
11 -8 24 1 60 47 26 31 47 62 47 69 0 9 -180 164 -216 186 -6 3 -33 -21 -62
-57z"/>
<path d="M1069 973 c-6 -15 -16 -49 -22 -75 -11 -45 -14 -48 -43 -48 -54 0
-86 -58 -60 -108 9 -17 34 -45 57 -63 l42 -33 39 44 c137 157 158 188 142 200
-12 11 -22 5 -63 -41 l-48 -53 -18 28 c-17 25 -17 33 -5 75 17 60 18 93 3 98
-7 3 -18 -8 -24 -24z m-5 -174 c14 -11 26 -23 26 -27 0 -4 -14 -23 -30 -42
l-28 -35 -26 24 c-29 28 -33 62 -10 85 21 21 36 20 68 -5z"/>
<path d="M2515 949 c-4 -5 25 -51 63 -102 39 -50 70 -93 68 -94 -2 -2 -58 22
-125 52 -99 45 -125 53 -141 45 -11 -6 -20 -15 -20 -19 0 -7 154 -216 176
-240 3 -3 11 2 19 10 12 12 5 26 -56 107 -38 50 -68 92 -66 92 2 0 53 -23 112
-51 111 -51 157 -59 163 -26 4 20 -156 237 -175 237 -6 0 -15 -5 -18 -11z"/>
<path d="M1275 842 c-13 -14 -1 -29 45 -55 28 -16 50 -30 50 -33 0 -11 -45
-84 -52 -84 -4 0 -22 9 -40 20 -39 24 -58 25 -58 5 0 -8 18 -24 40 -35 45 -23
47 -28 25 -70 -19 -36 -23 -37 -85 -5 -48 24 -75 20 -51 -8 18 -22 131 -71
140 -61 13 13 131 239 131 250 0 11 -138 83 -145 76z"/>
<path d="M2175 751 c-22 -10 -48 -28 -59 -39 -18 -21 -18 -23 4 -79 13 -32 26
-61 29 -65 10 -10 112 33 108 45 -4 13 -30 14 -63 4 -18 -6 -23 -1 -34 34 -13
38 -12 43 5 55 54 40 130 20 160 -42 17 -37 20 -97 5 -125 -15 -27 -63 -49
-110 -49 -42 0 -50 -9 -25 -30 20 -17 91 -7 124 17 48 37 66 71 65 128 0 89
-68 166 -146 165 -13 0 -41 -9 -63 -19z"/>
<path d="M1465 740 c-10 -16 0 -23 58 -41 48 -14 52 -18 49 -43 -2 -15 -7 -38
-12 -51 -9 -24 -10 -24 -57 -10 -28 8 -51 11 -56 6 -15 -15 0 -28 48 -40 50
-13 49 -11 34 -63 -11 -43 -8 -43 -73 -23 -34 10 -53 12 -60 5 -16 -16 3 -27
76 -46 43 -12 71 -15 77 -9 12 14 81 266 76 276 -3 4 -31 15 -63 24 -31 9 -64
18 -74 21 -9 3 -19 0 -23 -6z"/>
<path d="M2001 701 c-13 -8 -4 -80 35 -273 6 -29 31 -38 39 -15 6 15 -41 277
-52 288 -5 5 -14 4 -22 0z"/>
<path d="M1697 683 c-4 -3 -7 -71 -7 -150 0 -136 1 -143 20 -143 18 0 20 8 22
116 l3 116 64 -121 c58 -113 65 -122 90 -119 l26 3 3 153 c2 143 1 153 -15
150 -16 -3 -19 -19 -23 -127 l-5 -123 -50 103 c-27 56 -58 113 -68 125 -18 23
-46 31 -60 17z"/>
</g>
</svg>
